<svg width="28" height="32" viewBox="0 0 28 32" fill="none" xmlns="http://www.w3.org/2000/svg">
<path d="M0 29C0 30.6562 1.34375 32 3 32H25C26.6562 32 28 30.6562 28 29V12H0V29ZM20 16.75C20 16.3375 20.3375 16 20.75 16H23.25C23.6625 16 24 16.3375 24 16.75V19.25C24 19.6625 23.6625 20 23.25 20H20.75C20.3375 20 20 19.6625 20 19.25V16.75ZM20 24.75C20 24.3375 20.3375 24 20.75 24H23.25C23.6625 24 24 24.3375 24 24.75V27.25C24 27.6625 23.6625 28 23.25 28H20.75C20.3375 28 20 27.6625 20 27.25V24.75ZM12 16.75C12 16.3375 12.3375 16 12.75 16H15.25C15.6625 16 16 16.3375 16 16.75V19.25C16 19.6625 15.6625 20 15.25 20H12.75C12.3375 20 12 19.6625 12 19.25V16.75ZM12 24.75C12 24.3375 12.3375 24 12.75 24H15.25C15.6625 24 16 24.3375 16 24.75V27.25C16 27.6625 15.6625 28 15.25 28H12.75C12.3375 28 12 27.6625 12 27.25V24.75ZM4 16.75C4 16.3375 4.3375 16 4.75 16H7.25C7.6625 16 8 16.3375 8 16.75V19.25C8 19.6625 7.6625 20 7.25 20H4.75C4.3375 20 4 19.6625 4 19.25V16.75ZM4 24.75C4 24.3375 4.3375 24 4.75 24H7.25C7.6625 24 8 24.3375 8 24.75V27.25C8 27.6625 7.6625 28 7.25 28H4.75C4.3375 28 4 27.6625 4 27.25V24.75ZM25 4H22V1C22 0.45 21.55 0 21 0H19C18.45 0 18 0.45 18 1V4H10V1C10 0.45 9.55 0 9 0H7C6.45 0 6 0.45 6 1V4H3C1.34375 4 0 5.34375 0 7V10H28V7C28 5.34375 26.6562 4 25 4Z" fill="#F3F3F3" fill-opacity="0.6"/>
</svg>
