<svg width="176" height="62" viewBox="0 0 176 62" fill="none" xmlns="http://www.w3.org/2000/svg">
<rect y="39" width="5" height="23" fill="white" fill-opacity="0.1"/>
<rect x="9" y="44" width="5" height="18" fill="white" fill-opacity="0.1"/>
<rect x="18" y="49" width="5" height="13" fill="white" fill-opacity="0.1"/>
<rect x="27" y="39" width="5" height="23" fill="white" fill-opacity="0.1"/>
<rect x="36" y="29" width="5" height="33" fill="white" fill-opacity="0.1"/>
<rect x="45" y="14" width="5" height="48" fill="white" fill-opacity="0.1"/>
<rect x="54" y="7" width="5" height="55" fill="white" fill-opacity="0.1"/>
<rect x="63" y="4" width="5" height="58" fill="white" fill-opacity="0.1"/>
<rect x="72" y="29" width="5" height="33" fill="white" fill-opacity="0.1"/>
<rect x="81" y="18" width="5" height="44" fill="white" fill-opacity="0.1"/>
<rect x="90" y="11" width="5" height="51" fill="white" fill-opacity="0.1"/>
<rect x="99" y="7" width="5" height="55" fill="white" fill-opacity="0.1"/>
<rect x="108" y="27" width="5" height="35" fill="white" fill-opacity="0.1"/>
<rect x="117" y="34" width="5" height="28" fill="white" fill-opacity="0.1"/>
<rect x="126" y="39" width="5" height="23" fill="white" fill-opacity="0.1"/>
<rect x="135" y="29" width="5" height="33" fill="white" fill-opacity="0.1"/>
<rect x="144" y="2" width="5" height="60" fill="white" fill-opacity="0.1"/>
<rect x="153" width="5" height="62" fill="white" fill-opacity="0.1"/>
<rect x="162" y="5" width="5" height="57" fill="white" fill-opacity="0.1"/>
<rect x="171" y="10" width="5" height="52" fill="white" fill-opacity="0.1"/>
</svg>
