<svg width="28" height="33" viewBox="0 0 28 33" fill="none" xmlns="http://www.w3.org/2000/svg">
<path d="M26.1208 2.46591C26.1108 2.40891 26.0872 2.35644 26.0528 2.31466C26.0184 2.27288 25.9746 2.24352 25.9266 2.23002C22.7236 1.30705 15.3227 4.59609 11.313 9.31986C10.5979 10.1559 9.94588 11.0638 9.3645 12.0333C8.12802 11.9044 6.89153 12.0121 5.8377 12.5535C2.86434 14.0958 1.99864 18.1203 1.75747 19.8515C1.74379 19.9463 1.74895 20.0435 1.77254 20.1355C1.79614 20.2275 1.83752 20.3118 1.89344 20.3817C1.94936 20.4517 2.01829 20.5054 2.09481 20.5387C2.17133 20.5719 2.25335 20.5838 2.33442 20.5734L7.10919 19.9527C7.1126 20.377 7.13432 20.8007 7.17427 21.2224C7.19829 21.5152 7.30858 21.7889 7.48598 21.9959L9.33497 24.1699C9.51073 24.3787 9.74284 24.5086 9.99122 24.5372C10.347 24.5841 10.7046 24.6097 11.0625 24.6139L10.5386 30.2343C10.5299 30.3298 10.5401 30.4264 10.5683 30.5165C10.5966 30.6066 10.6421 30.6878 10.7015 30.7537C10.7608 30.8195 10.8323 30.8683 10.9103 30.8962C10.9883 30.924 11.0708 30.9302 11.1511 30.9142C12.6173 30.6371 16.038 29.6168 17.339 26.1125C17.7984 24.8705 17.8925 23.4203 17.7864 21.9701C18.611 21.2848 19.3833 20.5162 20.0947 19.673C24.117 14.9563 26.8918 6.42849 26.1208 2.46591ZM16.0818 14.0462C15.7145 13.6136 15.4643 13.0624 15.3629 12.4622C15.2615 11.862 15.3133 11.2398 15.512 10.6744C15.7106 10.109 16.047 9.6257 16.4788 9.28566C16.9105 8.94562 17.4181 8.76413 17.9373 8.76413C18.4566 8.76413 18.9641 8.94562 19.3959 9.28566C19.8276 9.6257 20.164 10.109 20.3627 10.6744C20.5613 11.2398 20.6132 11.862 20.5117 12.4622C20.4103 13.0624 20.1601 13.6136 19.7929 14.0462C19.5493 14.3337 19.2601 14.5617 18.9417 14.7173C18.6233 14.8729 18.282 14.953 17.9373 14.953C17.5926 14.953 17.2513 14.8729 16.9329 14.7173C16.6146 14.5617 16.3253 14.3337 16.0818 14.0462Z" fill="#F3F3F3"/>
<path d="M9.20937 25.7445C8.90969 26.0984 8.42898 26.2363 7.85039 26.3542C6.55047 26.6153 5.40258 25.2914 5.63609 23.7426C5.72523 23.1554 5.98883 22.3324 6.15289 22.139C6.18875 22.0976 6.21262 22.0438 6.22111 21.9855C6.22959 21.9272 6.22227 21.8671 6.20017 21.814C6.17807 21.7608 6.14233 21.7172 6.09801 21.6894C6.05369 21.6615 6.00305 21.6508 5.95328 21.6588C5.22635 21.7637 4.55007 22.1521 4.03211 22.7623C2.74641 24.2789 2.625 29.9063 2.625 29.9063C2.625 29.9063 7.4025 29.7632 8.6882 28.2466C9.20755 27.6366 9.53754 26.8384 9.625 25.9804C9.64523 25.711 9.36687 25.5505 9.20937 25.7445Z" fill="#F3F3F3"/>
</svg>
