<svg width="29" height="29" viewBox="0 0 29 29" fill="none" xmlns="http://www.w3.org/2000/svg">
<path d="M11.2739 13.8959H13.896C15.3381 13.8959 16.7212 14.4688 17.7409 15.4885C18.7606 16.5083 19.3335 17.8913 19.3335 19.3334H10.874L10.8752 20.5417H20.5418V19.3334C20.538 18.0477 20.1665 16.7899 19.4712 15.7084H22.9585C24.1007 15.7081 25.2196 16.0316 26.1854 16.6413C27.1512 17.251 27.9244 18.1221 28.4153 19.1534C25.5576 22.9246 20.9309 25.3751 15.7085 25.3751C12.3723 25.3751 9.546 24.6622 7.25016 23.4115V12.1692C8.72024 12.3798 10.1084 12.9755 11.2739 13.8959ZM6.04183 22.9584C6.04183 23.2789 5.91452 23.5862 5.68792 23.8128C5.46131 24.0394 5.15397 24.1667 4.8335 24.1667H2.41683C2.09636 24.1667 1.78902 24.0394 1.56241 23.8128C1.3358 23.5862 1.2085 23.2789 1.2085 22.9584V12.0834C1.2085 11.7629 1.3358 11.4556 1.56241 11.229C1.78902 11.0024 2.09636 10.8751 2.41683 10.8751H4.8335C5.15397 10.8751 5.46131 11.0024 5.68792 11.229C5.91452 11.4556 6.04183 11.7629 6.04183 12.0834V22.9584ZM21.7502 6.04175C22.7116 6.04175 23.6336 6.42367 24.3134 7.10349C24.9932 7.78331 25.3752 8.70534 25.3752 9.66675C25.3752 10.6282 24.9932 11.5502 24.3134 12.23C23.6336 12.9098 22.7116 13.2917 21.7502 13.2917C20.7888 13.2917 19.8667 12.9098 19.1869 12.23C18.5071 11.5502 18.1252 10.6282 18.1252 9.66675C18.1252 8.70534 18.5071 7.78331 19.1869 7.10349C19.8667 6.42367 20.7888 6.04175 21.7502 6.04175ZM13.2918 2.41675C14.2532 2.41675 15.1753 2.79867 15.8551 3.47849C16.5349 4.15831 16.9168 5.08034 16.9168 6.04175C16.9168 7.00316 16.5349 7.92519 15.8551 8.60501C15.1753 9.28483 14.2532 9.66675 13.2918 9.66675C12.3304 9.66675 11.4084 9.28483 10.7286 8.60501C10.0487 7.92519 9.66683 7.00316 9.66683 6.04175C9.66683 5.08034 10.0487 4.15831 10.7286 3.47849C11.4084 2.79867 12.3304 2.41675 13.2918 2.41675Z" fill="#F3F3F3" fill-opacity="0.6"/>
</svg>
